<region>
sample=$SAMPLE_DIR/zildjian_avedis_20_bow_a_01.wav
hivel=12
seq_length=4

<region>
sample=$SAMPLE_DIR/zildjian_avedis_20_bow_b_01.wav
hivel=12
seq_length=4
seq_position=2

<region>
sample=$SAMPLE_DIR/zildjian_avedis_20_bow_c_01.wav
hivel=12
seq_length=4
seq_position=3

<region>
sample=$SAMPLE_DIR/zildjian_avedis_20_bow_d_01.wav
hivel=12
seq_length=4
seq_position=4

<region>
sample=$SAMPLE_DIR/zildjian_avedis_20_bow_a_02.wav
lovel=13
hivel=25
seq_length=4

<region>
sample=$SAMPLE_DIR/zildjian_avedis_20_bow_b_02.wav
lovel=13
hivel=25
seq_length=4
seq_position=2

<region>
sample=$SAMPLE_DIR/zildjian_avedis_20_bow_c_02.wav
lovel=13
hivel=25
seq_length=4
seq_position=3

<region>
sample=$SAMPLE_DIR/zildjian_avedis_20_bow_d_02.wav
lovel=13
hivel=25
seq_length=4
seq_position=4

<region>
sample=$SAMPLE_DIR/zildjian_avedis_20_bow_a_03.wav
lovel=26
hivel=38
seq_length=4

<region>
sample=$SAMPLE_DIR/zildjian_avedis_20_bow_b_03.wav
lovel=26
hivel=38
seq_length=4
seq_position=2

<region>
sample=$SAMPLE_DIR/zildjian_avedis_20_bow_c_03.wav
lovel=26
hivel=38
seq_length=4
seq_position=3

<region>
sample=$SAMPLE_DIR/zildjian_avedis_20_bow_d_03.wav
lovel=26
hivel=38
seq_length=4
seq_position=4

<region>
sample=$SAMPLE_DIR/zildjian_avedis_20_bow_a_04.wav
lovel=39
hivel=50
seq_length=4

<region>
sample=$SAMPLE_DIR/zildjian_avedis_20_bow_b_04.wav
lovel=39
hivel=50
seq_length=4
seq_position=2

<region>
sample=$SAMPLE_DIR/zildjian_avedis_20_bow_c_04.wav
lovel=39
hivel=50
seq_length=4
seq_position=3

<region>
sample=$SAMPLE_DIR/zildjian_avedis_20_bow_d_04.wav
lovel=39
hivel=50
seq_length=4
seq_position=4

<region>
sample=$SAMPLE_DIR/zildjian_avedis_20_bow_a_05.wav
lovel=51
hivel=63
seq_length=4

<region>
sample=$SAMPLE_DIR/zildjian_avedis_20_bow_b_05.wav
lovel=51
hivel=63
seq_length=4
seq_position=2

<region>
sample=$SAMPLE_DIR/zildjian_avedis_20_bow_c_05.wav
lovel=51
hivel=63
seq_length=4
seq_position=3

<region>
sample=$SAMPLE_DIR/zildjian_avedis_20_bow_d_05.wav
lovel=51
hivel=63
seq_length=4
seq_position=4

<region>
sample=$SAMPLE_DIR/zildjian_avedis_20_bow_a_06.wav
lovel=64
hivel=76
seq_length=4

<region>
sample=$SAMPLE_DIR/zildjian_avedis_20_bow_b_06.wav
lovel=64
hivel=76
seq_length=4
seq_position=2

<region>
sample=$SAMPLE_DIR/zildjian_avedis_20_bow_c_06.wav
lovel=64
hivel=76
seq_length=4
seq_position=3

<region>
sample=$SAMPLE_DIR/zildjian_avedis_20_bow_d_06.wav
lovel=64
hivel=76
seq_length=4
seq_position=4

<region>
sample=$SAMPLE_DIR/zildjian_avedis_20_bow_a_07.wav
lovel=77
hivel=88
seq_length=4

<region>
sample=$SAMPLE_DIR/zildjian_avedis_20_bow_b_07.wav
lovel=77
hivel=88
seq_length=4
seq_position=2

<region>
sample=$SAMPLE_DIR/zildjian_avedis_20_bow_c_07.wav
lovel=77
hivel=88
seq_length=4
seq_position=3

<region>
sample=$SAMPLE_DIR/zildjian_avedis_20_bow_d_07.wav
lovel=77
hivel=88
seq_length=4
seq_position=4

<region>
sample=$SAMPLE_DIR/zildjian_avedis_20_bow_a_08.wav
lovel=89
hivel=101
seq_length=4

<region>
sample=$SAMPLE_DIR/zildjian_avedis_20_bow_b_08.wav
lovel=89
hivel=101
seq_length=4
seq_position=2

<region>
sample=$SAMPLE_DIR/zildjian_avedis_20_bow_c_08.wav
lovel=89
hivel=101
seq_length=4
seq_position=3

<region>
sample=$SAMPLE_DIR/zildjian_avedis_20_bow_d_08.wav
lovel=89
hivel=101
seq_length=4
seq_position=4

<region>
sample=$SAMPLE_DIR/zildjian_avedis_20_bow_a_09.wav
lovel=102
hivel=114
seq_length=4

<region>
sample=$SAMPLE_DIR/zildjian_avedis_20_bow_b_09.wav
lovel=102
hivel=114
seq_length=4
seq_position=2

<region>
sample=$SAMPLE_DIR/zildjian_avedis_20_bow_c_09.wav
lovel=102
hivel=114
seq_length=4
seq_position=3

<region>
sample=$SAMPLE_DIR/zildjian_avedis_20_bow_d_09.wav
lovel=102
hivel=114
seq_length=4
seq_position=4

<region>
sample=$SAMPLE_DIR/zildjian_avedis_20_bow_a_10.wav
lovel=115
seq_length=4

<region>
sample=$SAMPLE_DIR/zildjian_avedis_20_bow_b_10.wav
lovel=115
seq_length=4
seq_position=2

<region>
sample=$SAMPLE_DIR/zildjian_avedis_20_bow_c_10.wav
lovel=115
seq_length=4
seq_position=3

<region>
sample=$SAMPLE_DIR/zildjian_avedis_20_bow_d_10.wav
lovel=115
seq_length=4
seq_position=4

